<svg id="Capa_1" enable-background="new 0 0 453.54 453.54" height="512" viewBox="0 0 453.54 453.54" width="512" xmlns="http://www.w3.org/2000/svg"><g><path d="m453.542 119.108v215.323c0 65.777-53.333 119.11-119.11 119.11h-215.324c-65.777 0-119.11-53.333-119.11-119.11v-215.323c0-65.777 53.333-119.11 119.11-119.11h215.323c65.778.001 119.111 53.333 119.111 119.11z" fill="#4676ba"/><path d="m334.712 173.286c-9.399-13.841-25.333-19.545-25.333-19.545-28.821-7.358-51.831 1.285-66.613 10.43l-4.063-10.43h-48.875c1.429-3.295 2.23-6.926 2.23-10.747 0-7.076-2.738-13.495-7.183-18.316l-24.381-34.328c-4.531-8.595-13.542-14.461-23.936-14.461-14.943 0-27.055 12.113-27.055 27.056 0 7.074 2.738 13.494 7.184 18.315l22.821 32.481h-30.005v163.438l28.444 40.05h.014l110.462 96.313h86.008c65.777 0 119.11-53.333 119.11-119.11v-53.689zm-150.118-11.668v26.451l-12.854-18.901c4.988-1.28 9.414-3.932 12.854-7.55z" fill="#234d8e"/><g fill="#fff"><path d="m109.503 153.741h54.11v163.438h-54.11z"/><path d="m309.379 153.741c-31.611-8.071-56.237 3.108-70.676 13.085v-13.085h-54.109v163.438h54.109v-111.745c10.673-19.113 26.506-17.458 26.506-17.458 34.235 3.313 32.025 29.816 32.025 29.816v99.388h44.173v-123.684c-1.104-28.713-32.028-39.755-32.028-39.755z"/><circle cx="136.558" cy="102.944" r="27.054"/></g></g></svg>